<svg width="29" height="28" viewBox="0 0 29 28" fill="none" xmlns="http://www.w3.org/2000/svg">
<path d="M3.90039 13.4167C3.89637 14.9565 4.25614 16.4756 4.95039 17.85C5.77355 19.4971 7.03901 20.8824 8.60503 21.8509C10.1711 22.8193 11.9758 23.3327 13.8171 23.3334C15.3569 23.3374 16.8759 22.9776 18.2504 22.2834L24.9004 24.5L22.6837 17.85C23.378 16.4756 23.7377 14.9565 23.7337 13.4167C23.733 11.5754 23.2197 9.77069 22.2512 8.20468C21.2828 6.63866 19.8974 5.3732 18.2504 4.55003C16.8759 3.85579 15.3569 3.49602 13.8171 3.50003H13.2337C10.802 3.63419 8.50517 4.66059 6.78306 6.3827C5.06094 8.10482 4.03455 10.4016 3.90039 12.8334V13.4167Z" stroke="#888888" stroke-width="1.8" stroke-linecap="round" stroke-linejoin="round"/>
</svg>
