<svg width="13" height="13" viewBox="0 0 13 13" fill="none" xmlns="http://www.w3.org/2000/svg">
<path d="M4.99858 10.2012C4.94289 10.1496 4.89791 10.0875 4.86623 10.0185C4.83454 9.94946 4.81675 9.87488 4.81389 9.79899C4.81102 9.7231 4.82314 9.6474 4.84954 9.57619C4.87593 9.50499 4.9161 9.43968 4.96774 9.384L7.68688 6.50064L4.96774 3.61728C4.91611 3.5616 4.87595 3.49629 4.84955 3.42509C4.82316 3.35388 4.81105 3.27818 4.81391 3.20229C4.81677 3.12641 4.83455 3.05183 4.86624 2.98282C4.89793 2.91381 4.94289 2.85171 4.99858 2.80008C5.05426 2.74844 5.11957 2.70828 5.19077 2.68189C5.26198 2.65549 5.33768 2.64338 5.41357 2.64624C5.48945 2.64911 5.56403 2.66689 5.63304 2.69858C5.70206 2.73026 5.76415 2.77523 5.81579 2.83091L8.89959 6.10746C8.99875 6.21438 9.05385 6.35482 9.05385 6.50064C9.05385 6.64647 8.99875 6.78691 8.89959 6.89383L5.81579 10.1704C5.76416 10.2261 5.70206 10.271 5.63305 10.3027C5.56404 10.3344 5.48946 10.3522 5.41357 10.3551C5.33768 10.3579 5.26197 10.3458 5.19077 10.3194C5.11957 10.293 5.05426 10.2528 4.99858 10.2012Z" fill="#666666"/>
</svg>
