<svg width="24" height="25" viewBox="0 0 24 25" fill="none" xmlns="http://www.w3.org/2000/svg">
<path d="M21 11.8047C21.0034 13.1246 20.6951 14.4266 20.1 15.6047C19.3944 17.0165 18.3098 18.2039 16.9674 19.034C15.6251 19.8641 14.0782 20.3041 12.5 20.3047C11.3192 20.3078 10.1527 20.0613 9.07638 19.5832C8.83271 19.475 8.55772 19.4521 8.30478 19.5365L4.89737 20.6723C4.11561 20.9328 3.37187 20.1891 3.63246 19.4073L4.76826 15.9999C4.85257 15.747 4.82972 15.472 4.72149 15.2283C4.24341 14.152 3.99692 12.9855 4 11.8047C4.00061 10.2265 4.44061 8.67957 5.27072 7.33727C6.10083 5.99496 7.28825 4.91028 8.7 4.20472C9.87812 3.60965 11.1801 3.30127 12.5 3.30472H13C15.0843 3.41971 17.053 4.29948 18.5291 5.77557C20.0052 7.25167 20.885 9.22037 21 11.3047V11.8047Z" stroke="currentColor" stroke-linecap="round" stroke-linejoin="round"/>
</svg>
